<svg xmlns="http://www.w3.org/2000/svg"  fill="white" viewBox="0 0 64 64" width="30px" height="30px"><path d="M 7 12 C 4.791 12 3 13.791 3 16 L 3 48 C 3 50.209 4.791 52 7 52 L 57 52 C 59.209 52 61 50.209 61 48 L 61 16 C 61 13.791 59.209 12 57 12 L 7 12 z M 12.796875 27 L 16.035156 27 L 20.314453 36.609375 L 20.314453 27 L 24.154297 27 L 27.150391 33.691406 L 30.158203 27 L 34.068359 27 L 34.068359 36.978516 L 31.617188 36.978516 L 31.617188 29.695312 L 28.265625 36.978516 L 26.039062 36.978516 L 22.765625 29.568359 L 22.765625 36.978516 L 17.830078 36.978516 L 16.861328 34.75 L 11.970703 34.75 L 11.013672 36.978516 L 8.4296875 36.978516 L 12.796875 27 z M 37.275391 27 L 46.931641 27 L 49.644531 30.117188 L 52.451172 27.021484 L 55.570312 27.021484 L 51.183594 31.878906 L 55.539062 37 L 52.431641 37 L 49.558594 33.679688 L 46.615234 36.978516 L 37.275391 36.978516 L 37.275391 27 z M 14.355469 29.105469 L 12.894531 32.595703 L 15.876953 32.595703 L 14.355469 29.105469 z M 39.689453 29.148438 L 39.689453 31.017578 L 45.09375 31.017578 L 45.09375 32.912109 L 39.689453 32.912109 L 39.689453 34.886719 L 45.337891 34.886719 L 48.033203 31.880859 L 45.650391 29.162109 L 39.689453 29.148438 z"/></svg>