<?xml version="1.0"?><svg xmlns="http://www.w3.org/2000/svg"  fill="white" viewBox="0 0 50 50" width="30px" height="30px">    <path d="M32.68,8C29.92,8,27.31,8.65,25,9.81C22.68,8.65,20.08,8,17.32,8C7.75,8,0,15.84,0,25.5C0,35.16,7.75,43,17.32,43 c2.75,0,5.37-0.66,7.68-1.81c2.31,1.16,4.92,1.81,7.68,1.81C42.25,43,50,35.16,50,25.5C50,15.84,42.25,8,32.68,8z M32.68,38.55 c-0.74,0-1.47-0.07-2.19-0.19c2.98-3.09,4.79-7.03,5.12-11.28L35.7,26H26v5.38h2.85c-0.91,1.81-2.23,3.4-3.84,4.61 c-1.62-1.22-2.95-2.81-3.86-4.61H24V26h-9.7l0.09,1.08c0.34,4.28,2.12,8.23,5.06,11.29c-0.7,0.12-1.41,0.18-2.13,0.18 c-7.11,0-12.9-5.86-12.9-13.05s5.79-13.05,12.9-13.05c0.75,0,1.48,0.06,2.18,0.18c-2.25,2.35-3.85,5.24-4.48,8.16L14.76,22h5.46 l0.23-0.68c0.83-2.5,2.43-4.71,4.54-6.3c2.12,1.59,3.73,3.8,4.56,6.3L29.78,22h5.46l-0.26-1.21c-0.64-2.98-2.2-5.81-4.46-8.15 c0.71-0.12,1.43-0.19,2.16-0.19c7.11,0,12.9,5.86,12.9,13.05S39.79,38.55,32.68,38.55z"/></svg>